<svg
  width="133"
  height="24"
  viewBox="0 0 133 24"
  fill="none"
  xmlns="http://www.w3.org/2000/svg">
  <path
    d="M14.0003 0C9.16221 0 5.12731 3.4357 4.2016 8.00036H18.8287L8.48839 18.3402C10.0687 19.3869 11.9622 20.0005 14.0003 20.0005C19.523 20.0005 24 15.5226 24 10.0003C24 4.47761 19.5226 0.000642913 14.0003 0.000642913V0Z"
    fill="#1B1A17"
  />
  <path d="M0 24V9.99966H14.0004L0 24Z" fill="#1B1A17" />
  <path
    d="M29.9482 17V6.09091H34.2521C35.0795 6.09091 35.7844 6.24893 36.3668 6.56499C36.9492 6.87749 37.3931 7.3125 37.6985 7.87003C38.0075 8.42401 38.1619 9.06321 38.1619 9.78764C38.1619 10.5121 38.0057 11.1513 37.6932 11.7053C37.3807 12.2592 36.9279 12.6907 36.3349 12.9996C35.7454 13.3086 35.0316 13.4631 34.1935 13.4631H31.4503V11.6147H33.8207C34.2646 11.6147 34.6303 11.5384 34.918 11.3857C35.2092 11.2294 35.4258 11.0146 35.5678 10.7411C35.7134 10.4641 35.7862 10.1463 35.7862 9.78764C35.7862 9.42543 35.7134 9.10937 35.5678 8.83949C35.4258 8.56605 35.2092 8.35476 34.918 8.20561C34.6268 8.05291 34.2575 7.97656 33.81 7.97656H32.2546V17H29.9482ZM39.6175 17V8.81818H41.8174V10.2457H41.9026C42.0518 9.73793 42.3021 9.3544 42.6537 9.09517C43.0052 8.83239 43.4101 8.70099 43.8682 8.70099C43.9818 8.70099 44.1043 8.7081 44.2357 8.7223C44.3671 8.73651 44.4825 8.75604 44.5819 8.78089V10.7944C44.4754 10.7624 44.328 10.734 44.1398 10.7092C43.9516 10.6843 43.7794 10.6719 43.6231 10.6719C43.2893 10.6719 42.991 10.7447 42.7282 10.8903C42.469 11.0323 42.2631 11.2312 42.1104 11.4869C41.9612 11.7425 41.8866 12.0373 41.8866 12.3711V17H39.6175ZM49.071 17.1598C48.2436 17.1598 47.5281 16.984 46.9244 16.6325C46.3242 16.2773 45.8608 15.7837 45.5341 15.1516C45.2074 14.516 45.044 13.7791 45.044 12.9411C45.044 12.0959 45.2074 11.3572 45.5341 10.7251C45.8608 10.0895 46.3242 9.59588 46.9244 9.24432C47.5281 8.8892 48.2436 8.71165 49.071 8.71165C49.8984 8.71165 50.6122 8.8892 51.2124 9.24432C51.8161 9.59588 52.2812 10.0895 52.608 10.7251C52.9347 11.3572 53.098 12.0959 53.098 12.9411C53.098 13.7791 52.9347 14.516 52.608 15.1516C52.2812 15.7837 51.8161 16.2773 51.2124 16.6325C50.6122 16.984 49.8984 17.1598 49.071 17.1598ZM49.0817 15.402C49.4581 15.402 49.7724 15.2955 50.0245 15.0824C50.2766 14.8658 50.4666 14.571 50.5945 14.1982C50.7259 13.8253 50.7915 13.4009 50.7915 12.9251C50.7915 12.4492 50.7259 12.0249 50.5945 11.652C50.4666 11.2791 50.2766 10.9844 50.0245 10.7678C49.7724 10.5511 49.4581 10.4428 49.0817 10.4428C48.7017 10.4428 48.3821 10.5511 48.1229 10.7678C47.8672 10.9844 47.6737 11.2791 47.5423 11.652C47.4144 12.0249 47.3505 12.4492 47.3505 12.9251C47.3505 13.4009 47.4144 13.8253 47.5423 14.1982C47.6737 14.571 47.8672 14.8658 48.1229 15.0824C48.3821 15.2955 48.7017 15.402 49.0817 15.402ZM54.5735 8.81818H56.8427V17.4048C56.8427 18.0369 56.7184 18.5483 56.4698 18.9389C56.2212 19.3295 55.8643 19.6154 55.3991 19.7965C54.9375 19.9776 54.3853 20.0682 53.7425 20.0682C53.6644 20.0682 53.5898 20.0664 53.5188 20.0629C53.4442 20.0629 53.3661 20.0611 53.2844 20.0575V18.2837C53.3448 18.2873 53.3981 18.2891 53.4442 18.2891C53.4869 18.2926 53.533 18.2944 53.5827 18.2944C53.9485 18.2944 54.2042 18.2163 54.3498 18.06C54.4989 17.9073 54.5735 17.6765 54.5735 17.3675V8.81818ZM55.7028 7.76349C55.369 7.76349 55.0813 7.65163 54.8398 7.42791C54.5984 7.20064 54.4776 6.92898 54.4776 6.61293C54.4776 6.30043 54.5984 6.03232 54.8398 5.80859C55.0813 5.58132 55.369 5.46768 55.7028 5.46768C56.0437 5.46768 56.3331 5.58132 56.571 5.80859C56.8125 6.03232 56.9332 6.30043 56.9332 6.61293C56.9332 6.92898 56.8125 7.20064 56.571 7.42791C56.3331 7.65163 56.0437 7.76349 55.7028 7.76349ZM62.3891 17.1598C61.5475 17.1598 60.8231 16.9893 60.2158 16.6484C59.6121 16.304 59.1469 15.8175 58.8202 15.1889C58.4935 14.5568 58.3302 13.8093 58.3302 12.9464C58.3302 12.1048 58.4935 11.3661 58.8202 10.7305C59.1469 10.0948 59.6068 9.59943 60.1998 9.24432C60.7964 8.8892 61.496 8.71165 62.2986 8.71165C62.8383 8.71165 63.3408 8.79865 63.806 8.97266C64.2748 9.14311 64.6831 9.40057 65.0312 9.74503C65.3827 10.0895 65.6562 10.5227 65.8515 11.0447C66.0468 11.5632 66.1444 12.1705 66.1444 12.8665V13.4897H59.2357V12.0835H64.0084C64.0084 11.7567 63.9374 11.4673 63.7954 11.2152C63.6533 10.9631 63.4562 10.766 63.2041 10.6239C62.9555 10.4783 62.6661 10.4055 62.3358 10.4055C61.9914 10.4055 61.686 10.4854 61.4197 10.6452C61.1569 10.8015 60.9509 11.0128 60.8018 11.2791C60.6526 11.5419 60.5763 11.8349 60.5727 12.158V13.495C60.5727 13.8999 60.6473 14.2496 60.7964 14.5444C60.9491 14.8391 61.164 15.0664 61.441 15.2262C61.718 15.386 62.0464 15.4659 62.4264 15.4659C62.6785 15.4659 62.9094 15.4304 63.1189 15.3594C63.3284 15.2884 63.5077 15.1818 63.6569 15.0398C63.806 14.8977 63.9197 14.7237 63.9978 14.5178L66.0965 14.6562C65.99 15.1605 65.7716 15.6009 65.4413 15.9773C65.1146 16.3501 64.692 16.6413 64.1736 16.8509C63.6586 17.0568 63.0638 17.1598 62.3891 17.1598ZM71.322 17.1598C70.4839 17.1598 69.7631 16.9822 69.1594 16.6271C68.5592 16.2685 68.0976 15.7713 67.7744 15.1357C67.4548 14.5 67.295 13.7685 67.295 12.9411C67.295 12.103 67.4566 11.3679 67.7797 10.7358C68.1064 10.1001 68.5699 9.60476 69.17 9.24964C69.7702 8.89098 70.4839 8.71165 71.3113 8.71165C72.0251 8.71165 72.6501 8.84126 73.1863 9.1005C73.7226 9.35973 74.1469 9.72372 74.4594 10.1925C74.7719 10.6612 74.9442 11.2116 74.9761 11.8438H72.8348C72.7744 11.4354 72.6146 11.1069 72.3554 10.8583C72.0997 10.6062 71.7641 10.4801 71.3486 10.4801C70.9971 10.4801 70.6899 10.576 70.4271 10.7678C70.1679 10.956 69.9655 11.2312 69.8199 11.5934C69.6743 11.9556 69.6015 12.3942 69.6015 12.9091C69.6015 13.4311 69.6725 13.875 69.8145 14.2408C69.9601 14.6065 70.1643 14.8853 70.4271 15.0771C70.6899 15.2688 70.9971 15.3647 71.3486 15.3647C71.6079 15.3647 71.8405 15.3114 72.0464 15.2049C72.2559 15.0984 72.4282 14.9439 72.5631 14.7415C72.7016 14.5355 72.7922 14.2887 72.8348 14.0011H74.9761C74.9406 14.6261 74.7702 15.1765 74.4648 15.6523C74.1629 16.1246 73.7457 16.494 73.213 16.7603C72.6803 17.0266 72.05 17.1598 71.322 17.1598ZM80.7809 8.81818V10.5227H75.8537V8.81818H80.7809ZM76.9723 6.85795H79.2415V14.4858C79.2415 14.6953 79.2734 14.8587 79.3374 14.9759C79.4013 15.0895 79.4901 15.1694 79.6037 15.2156C79.7209 15.2617 79.8558 15.2848 80.0085 15.2848C80.1151 15.2848 80.2216 15.2759 80.3281 15.2582C80.4347 15.2369 80.5163 15.2209 80.5732 15.2102L80.93 16.8988C80.8164 16.9343 80.6566 16.9751 80.4506 17.0213C80.2447 17.071 79.9943 17.1012 79.6996 17.1119C79.1527 17.1332 78.6733 17.0604 78.2614 16.8935C77.853 16.7266 77.5352 16.4673 77.3079 16.1158C77.0806 15.7642 76.9688 15.3203 76.9723 14.7841V6.85795ZM85.6562 17V15.631L91.1001 7.99254H85.6455V6.09091H93.9978V7.45987L88.5486 15.0984H94.0084V17H85.6562ZM99.4643 17.1598C98.6227 17.1598 97.8983 16.9893 97.291 16.6484C96.6873 16.304 96.2221 15.8175 95.8954 15.1889C95.5687 14.5568 95.4054 13.8093 95.4054 12.9464C95.4054 12.1048 95.5687 11.3661 95.8954 10.7305C96.2221 10.0948 96.682 9.59943 97.275 9.24432C97.8716 8.8892 98.5712 8.71165 99.3738 8.71165C99.9135 8.71165 100.416 8.79865 100.881 8.97266C101.35 9.14311 101.758 9.40057 102.106 9.74503C102.458 10.0895 102.731 10.5227 102.927 11.0447C103.122 11.5632 103.22 12.1705 103.22 12.8665V13.4897H96.3109V12.0835H101.084C101.084 11.7567 101.013 11.4673 100.871 11.2152C100.729 10.9631 100.531 10.766 100.279 10.6239C100.031 10.4783 99.7413 10.4055 99.411 10.4055C99.0666 10.4055 98.7612 10.4854 98.4949 10.6452C98.2321 10.8015 98.0261 11.0128 97.877 11.2791C97.7278 11.5419 97.6515 11.8349 97.6479 12.158V13.495C97.6479 13.8999 97.7225 14.2496 97.8716 14.5444C98.0243 14.8391 98.2392 15.0664 98.5162 15.2262C98.7931 15.386 99.1216 15.4659 99.5016 15.4659C99.7537 15.4659 99.9846 15.4304 100.194 15.3594C100.404 15.2884 100.583 15.1818 100.732 15.0398C100.881 14.8977 100.995 14.7237 101.073 14.5178L103.172 14.6562C103.065 15.1605 102.847 15.6009 102.517 15.9773C102.19 16.3501 101.767 16.6413 101.249 16.8509C100.734 17.0568 100.139 17.1598 99.4643 17.1598ZM106.97 12.2699V17H104.7V8.81818H106.863V10.2617H106.959C107.14 9.78587 107.444 9.40945 107.87 9.13246C108.296 8.85192 108.813 8.71165 109.42 8.71165C109.988 8.71165 110.483 8.83594 110.906 9.08452C111.329 9.3331 111.657 9.68821 111.892 10.1499C112.126 10.608 112.243 11.1548 112.243 11.7905V17H109.974V12.1953C109.977 11.6946 109.85 11.304 109.59 11.0234C109.331 10.7393 108.974 10.5973 108.52 10.5973C108.214 10.5973 107.944 10.663 107.71 10.7944C107.479 10.9258 107.298 11.1175 107.167 11.3697C107.039 11.6183 106.973 11.9183 106.97 12.2699ZM114.032 17V8.81818H116.301V17H114.032ZM115.171 7.76349C114.834 7.76349 114.545 7.65163 114.303 7.42791C114.065 7.20064 113.946 6.92898 113.946 6.61293C113.946 6.30043 114.065 6.03232 114.303 5.80859C114.545 5.58132 114.834 5.46768 115.171 5.46768C115.509 5.46768 115.796 5.58132 116.034 5.80859C116.276 6.03232 116.397 6.30043 116.397 6.61293C116.397 6.92898 116.276 7.20064 116.034 7.42791C115.796 7.65163 115.509 7.76349 115.171 7.76349ZM122.47 8.81818V10.5227H117.543V8.81818H122.47ZM118.662 6.85795H120.931V14.4858C120.931 14.6953 120.963 14.8587 121.027 14.9759C121.091 15.0895 121.18 15.1694 121.293 15.2156C121.41 15.2617 121.545 15.2848 121.698 15.2848C121.805 15.2848 121.911 15.2759 122.018 15.2582C122.124 15.2369 122.206 15.2209 122.263 15.2102L122.619 16.8988C122.506 16.9343 122.346 16.9751 122.14 17.0213C121.934 17.071 121.684 17.1012 121.389 17.1119C120.842 17.1332 120.363 17.0604 119.951 16.8935C119.542 16.7266 119.225 16.4673 118.997 16.1158C118.77 15.7642 118.658 15.3203 118.662 14.7841V6.85795ZM126.393 12.2699V17H124.124V6.09091H126.33V10.2617H126.425C126.61 9.77876 126.908 9.40057 127.32 9.12713C127.732 8.85014 128.249 8.71165 128.87 8.71165C129.439 8.71165 129.934 8.83594 130.357 9.08452C130.783 9.32955 131.113 9.68288 131.347 10.1445C131.585 10.6026 131.702 11.1513 131.699 11.7905V17H129.43V12.1953C129.433 11.6911 129.305 11.2987 129.046 11.0181C128.79 10.7376 128.432 10.5973 127.97 10.5973C127.661 10.5973 127.388 10.663 127.15 10.7944C126.915 10.9258 126.731 11.1175 126.596 11.3697C126.464 11.6183 126.397 11.9183 126.393 12.2699Z"
    fill="#7A797D"
  />
</svg>
